<svg width="80" height="80" viewBox="0 0 80 80" fill="none" xmlns="http://www.w3.org/2000/svg">
<circle cx="40" cy="40" r="40" fill="#2D6281"/>
<circle cx="67" cy="67" r="12" fill="url(#paint0_linear_2010_3)" stroke="white" stroke-width="2"/>
<path d="M65.5708 70.5001L62.2458 67.1751L63.0771 66.3438L65.5708 68.8376L70.9229 63.4855L71.7542 64.3167L65.5708 70.5001Z" fill="white"/>
<path d="M20.236 40.0648C20.3986 41.3082 21.0079 42.45 21.9504 43.2772C22.8928 44.1045 24.104 44.5606 25.358 44.5606C26.612 44.5606 27.8232 44.1045 28.7656 43.2772C29.7081 42.45 30.3174 41.3082 30.48 40.0648H20.236ZM48.1456 50.464C48.1459 50.5691 48.1255 50.6732 48.0855 50.7705C48.0456 50.8677 47.9869 50.9561 47.9127 51.0306C47.8386 51.1051 47.7504 51.1643 47.6534 51.2048C47.5564 51.2452 47.4523 51.2661 47.3472 51.2664H32.4224C31.984 51.2664 31.6224 50.9064 31.6224 50.464C31.6239 50.2528 31.7088 50.0507 31.8587 49.9019C32.0086 49.7531 32.2112 49.6695 32.4224 49.6696H47.3464C47.788 49.6696 48.1456 50.0248 48.1456 50.464ZM31.7096 51.6752H48.0592V53.9848H31.7096V51.6752ZM49.52 40.0648C49.682 41.3088 50.2909 42.4514 51.2333 43.2796C52.1756 44.1077 53.3871 44.5648 54.6416 44.5656C55.8962 44.5659 57.108 44.1092 58.0502 43.2808C58.9924 42.4524 59.6005 41.3091 59.7608 40.0648H49.52ZM59.4792 38.4576L55.2848 32.68H57.5272C58.0728 32.68 58.512 32.2328 58.512 31.68C58.512 31.132 58.072 30.6896 57.5272 30.6896H45.6488C45.2964 29.7182 44.6943 28.8568 43.903 28.1922C43.1117 27.5276 42.1593 27.0833 41.1416 26.904V23.7864C41.1416 23.232 40.6968 22.7896 40.1456 22.7896L40.0528 22.8L39.96 22.7896C39.8291 22.7892 39.6995 22.8148 39.5785 22.8648C39.4576 22.9148 39.3477 22.9883 39.2553 23.0809C39.1629 23.1736 39.0897 23.2836 39.04 23.4047C38.9902 23.5258 38.965 23.6555 38.9656 23.7864V26.9024C37.9482 27.0819 36.9961 27.5264 36.2051 28.1909C35.4142 28.8555 34.8123 29.7168 34.46 30.688H22.5792C22.0376 30.688 21.596 31.1304 21.596 31.6784C21.596 32.232 22.0376 32.6784 22.5792 32.6784H24.7192L20.524 38.456H20V39.5232H30.7184V38.456H30.192L25.9984 32.68H35.7336C35.7336 32.4544 35.7584 32.2328 35.792 32.0208C35.8264 31.9208 35.8496 31.8192 35.8496 31.7144C36.0303 30.9545 36.4166 30.259 36.9662 29.704C37.5158 29.149 38.2075 28.756 38.9656 28.568V39.5256H38.924C38.8384 43.6472 36.8776 47.2416 33.9688 49.2616H46.14C43.2304 47.2416 41.2712 43.6472 41.1808 39.5256H41.1424V28.568C41.9003 28.7561 42.5919 29.1492 43.1414 29.7042C43.6908 30.2591 44.077 30.9546 44.2576 31.7144C44.2619 31.8189 44.2819 31.921 44.3176 32.0208C44.3496 32.2336 44.3696 32.4544 44.3696 32.68H54.0032L49.808 38.4576H49.2848V39.5248H60V38.4576H59.4792ZM24.932 38.4576H21.584L24.932 33.8456V38.4576ZM25.7888 38.4576V33.8456L29.1368 38.4576H25.7888ZM54.2144 38.4576H50.8648L54.2144 33.8456V38.4576ZM55.0672 38.4576V33.8456L58.4192 38.4576H55.0672ZM26.3528 29.2992C26.3455 29.5579 26.2375 29.8036 26.0519 29.984C25.8663 30.1644 25.6176 30.2654 25.3588 30.2654C25.1 30.2654 24.8513 30.1644 24.6657 29.984C24.4801 29.8036 24.3721 29.5579 24.3648 29.2992C24.3648 28.7504 24.8112 28.3024 25.3608 28.3024C25.908 28.3016 26.3528 28.7504 26.3528 29.2992ZM55.636 29.2464C55.636 29.7992 55.1912 30.2376 54.6424 30.2376C54.5119 30.2384 54.3825 30.2134 54.2617 30.1639C54.1409 30.1144 54.0312 30.0415 53.9388 29.9493C53.8464 29.8571 53.7732 29.7475 53.7234 29.6269C53.6736 29.5062 53.6483 29.3769 53.6488 29.2464C53.6434 29.1125 53.6651 28.979 53.7127 28.8537C53.7602 28.7285 53.8325 28.6142 53.9253 28.5176C54.0181 28.421 54.1294 28.3441 54.2527 28.2916C54.3759 28.2391 54.5085 28.2121 54.6424 28.2121C54.7763 28.2121 54.9089 28.2391 55.0321 28.2916C55.1554 28.3441 55.2667 28.421 55.3595 28.5176C55.4523 28.6142 55.5246 28.7285 55.5721 28.8537C55.6197 28.979 55.6414 29.1125 55.636 29.2464Z" fill="white"/>
<defs>
<linearGradient id="paint0_linear_2010_3" x1="67.0647" y1="80" x2="67.0647" y2="54" gradientUnits="userSpaceOnUse">
<stop stop-color="#F0572D"/>
<stop offset="1" stop-color="#CE441E"/>
</linearGradient>
</defs>
</svg>
