<svg width="80" height="80" viewBox="0 0 80 80" fill="none" xmlns="http://www.w3.org/2000/svg">
<circle cx="40" cy="40" r="40" fill="#2D6281"/>
<circle cx="67" cy="67" r="12" fill="url(#paint0_linear_2010_5)" stroke="white" stroke-width="2"/>
<path d="M65.5708 70.5001L62.2458 67.1751L63.0771 66.3438L65.5708 68.8376L70.9229 63.4855L71.7542 64.3167L65.5708 70.5001Z" fill="white"/>
<path d="M51.6667 19.6666L49.5667 24.25L45 26.3333L49.5667 28.4333L51.6667 33L53.75 28.4333L58.3334 26.3333L53.75 24.25M35 24.6666L30.8334 33.8333L21.6667 38L30.8334 42.1666L35 51.3333L39.1667 42.1666L48.3334 38L39.1667 33.8333M51.6667 43L49.5667 47.5666L45 49.6666L49.5667 51.75L51.6667 56.3333L53.75 51.75L58.3334 49.6666L53.75 47.5666" fill="white"/>
<defs>
<linearGradient id="paint0_linear_2010_5" x1="67.0647" y1="80" x2="67.0647" y2="54" gradientUnits="userSpaceOnUse">
<stop stop-color="#F0572D"/>
<stop offset="1" stop-color="#CE441E"/>
</linearGradient>
</defs>
</svg>
