<svg width="80" height="80" viewBox="0 0 80 80" fill="none" xmlns="http://www.w3.org/2000/svg">
<circle cx="40" cy="40" r="40" fill="#2D6281"/>
<circle cx="67" cy="67" r="12" fill="url(#paint0_linear_2010_6)" stroke="white" stroke-width="2"/>
<path d="M65.5708 70.5001L62.2458 67.1751L63.0771 66.3438L65.5708 68.8376L70.9229 63.4855L71.7542 64.3167L65.5708 70.5001Z" fill="white"/>
<path d="M25 23H32.6155C34.1758 23.0012 35.6719 23.6215 36.7752 24.7248C37.8785 25.8281 38.4988 27.3242 38.5 28.8845V36.5H30.8845C29.3242 36.4988 27.8281 35.8785 26.7248 34.7752C25.6215 33.6719 25.0012 32.1758 25 30.6155V23ZM41.5 28.8845C41.5012 27.3242 42.1215 25.8281 43.2248 24.7248C44.3281 23.6215 45.8242 23.0012 47.3845 23H55V30.6155C54.9988 32.1758 54.3785 33.6719 53.2752 34.7752C52.1719 35.8785 50.6758 36.4988 49.1155 36.5H41.5V28.8845ZM25 45.3845C25.0012 43.8242 25.6215 42.3281 26.7248 41.2248C27.8281 40.1215 29.3242 39.5012 30.8845 39.5H38.5V47.1155C38.4988 48.6758 37.8785 50.1719 36.7752 51.2752C35.6719 52.3785 34.1758 52.9988 32.6155 53H25V45.3845ZM41.5 39.5H49.1155C50.6758 39.5012 52.1719 40.1215 53.2752 41.2248C54.3785 42.3281 54.9988 43.8242 55 45.3845V53H47.3845C45.8242 52.9988 44.3281 52.3785 43.2248 51.2752C42.1215 50.1719 41.5012 48.6758 41.5 47.1155V39.5Z" fill="white"/>
<defs>
<linearGradient id="paint0_linear_2010_6" x1="67.0647" y1="80" x2="67.0647" y2="54" gradientUnits="userSpaceOnUse">
<stop stop-color="#F0572D"/>
<stop offset="1" stop-color="#CE441E"/>
</linearGradient>
</defs>
</svg>
