<svg width="80" height="80" viewBox="0 0 80 80" fill="none" xmlns="http://www.w3.org/2000/svg">
<circle cx="40" cy="40" r="39.5" stroke="#E5E5E5" stroke-dasharray="2 2"/>
<path d="M40 51.6663H43.3333V29.9997L53.99 34.5663C54.29 34.6949 54.5456 34.9088 54.7252 35.1814C54.9047 35.4539 55.0003 35.7732 55 36.0997V51.6663H58.3333V54.9997H21.6667V51.6663H25V29.4163C24.9999 29.0938 25.0935 28.7783 25.2692 28.5079C25.4449 28.2375 25.6953 28.0239 25.99 27.893L38.8283 22.188C38.9551 22.1317 39.0939 22.1079 39.2322 22.1188C39.3704 22.1297 39.5038 22.1749 39.6202 22.2504C39.7365 22.3259 39.8322 22.4292 39.8985 22.551C39.9649 22.6728 39.9997 22.8093 40 22.948V51.6663Z" fill="url(#paint0_linear_2069_4)"/>
<defs>
<linearGradient id="paint0_linear_2069_4" x1="40.0912" y1="54.9997" x2="40.0912" y2="22.1162" gradientUnits="userSpaceOnUse">
<stop stop-color="#F0572D"/>
<stop offset="1" stop-color="#CE441E"/>
</linearGradient>
</defs>
</svg>
