<svg width="80" height="80" viewBox="0 0 80 80" fill="none" xmlns="http://www.w3.org/2000/svg">
<circle cx="40" cy="40" r="39.5" stroke="#E5E5E5" stroke-dasharray="2 2"/>
<path d="M33.1324 32.6725C34.9052 32.6725 36.3407 34.108 36.3407 35.8808V53.2975C36.3407 54.1484 36.0027 54.9644 35.401 55.5661C34.7993 56.1678 33.9833 56.5058 33.1324 56.5058H24.875C24.0241 56.5058 23.2081 56.1678 22.6064 55.5661C22.0047 54.9644 21.6667 54.1484 21.6667 53.2975V35.8808C21.6667 34.108 23.104 32.6725 24.875 32.6725H33.1324ZM29.462 50.08H28.5454C28.1807 50.08 27.8309 50.2249 27.5731 50.4827C27.3152 50.7406 27.1704 51.0903 27.1704 51.455C27.1704 51.8197 27.3152 52.1694 27.5731 52.4273C27.8309 52.6851 28.1807 52.83 28.5454 52.83H29.462C29.8267 52.83 30.1764 52.6851 30.4343 52.4273C30.6922 52.1694 30.837 51.8197 30.837 51.455C30.837 51.0903 30.6922 50.7406 30.4343 50.4827C30.1764 50.2249 29.8267 50.08 29.462 50.08ZM56.9584 48.2503C57.3067 48.2504 57.6421 48.3828 57.8966 48.6206C58.1512 48.8584 58.306 49.184 58.3297 49.5316C58.3535 49.8792 58.2444 50.2228 58.0246 50.493C57.8047 50.7633 57.4905 50.94 57.1454 50.9875L56.9584 51.0003L38.1667 50.9985V48.2485L56.9584 48.2503ZM51.4584 27.167C53.2294 27.167 54.6667 28.6043 54.6667 30.3753V44.1253C54.6667 44.9762 54.3287 45.7923 53.727 46.394C53.1253 46.9956 52.3093 47.3337 51.4584 47.3337H38.1667V34.5003C38.167 33.5753 37.8176 32.6843 37.1886 32.006C36.5596 31.3277 35.6975 30.9122 34.775 30.8428L34.5 30.8337L25.3334 30.8318V30.3753C25.3334 28.6043 26.7707 27.167 28.5417 27.167H51.4584Z" fill="url(#paint0_linear_2069_3)"/>
<defs>
<linearGradient id="paint0_linear_2069_3" x1="40.091" y1="56.5058" x2="40.091" y2="27.167" gradientUnits="userSpaceOnUse">
<stop stop-color="#F0572D"/>
<stop offset="1" stop-color="#CE441E"/>
</linearGradient>
</defs>
</svg>
