<svg width="24" height="24" viewBox="0 0 24 24" fill="none" xmlns="http://www.w3.org/2000/svg">
<path d="M6.19795 1.51494L0.497952 1.51294V3.51294L2.36995 3.51394C-1.21305 8.58794 -0.733048 15.6519 3.80795 20.1939L4.51495 20.8999L5.92895 19.4859L5.22195 18.7789C1.29995 14.8569 0.958952 8.70994 4.19795 4.39994V6.49994H6.19795V1.51494ZM7.97395 6.63794C7.45496 6.93767 7.07628 7.43127 6.92119 8.01018C6.7661 8.58909 6.84731 9.2059 7.14695 9.72494L11.179 16.7079L8.59595 17.5879C7.87695 17.8339 7.37595 18.4879 7.32795 19.2459L7.21795 20.9559L13.736 23.6479C14.528 23.9749 15.426 23.9159 16.167 23.4879L22.304 19.9449C22.8046 19.6552 23.2016 19.2155 23.4388 18.688C23.676 18.1605 23.7415 17.5717 23.626 17.0049L22.494 11.4789C22.3663 10.8594 22.0298 10.3026 21.5406 9.90154C21.0515 9.50051 20.4395 9.27966 19.807 9.27594L15.61 9.25594C15.1214 9.25389 14.641 9.38158 14.218 9.62594L12.786 10.4519L11.061 7.46494C10.7612 6.94595 10.2676 6.56726 9.68871 6.41218C9.1098 6.25709 8.49299 6.3383 7.97395 6.63794Z" fill="#D4D4D4"/>
</svg>
