<svg width="313" height="265" viewBox="0 0 313 265" fill="none" xmlns="http://www.w3.org/2000/svg">
<circle cx="164" cy="137" r="73.5" stroke="#E9E9E9" stroke-width="25"/>
<path d="M232.741 110.982C238.326 125.737 239.014 141.897 234.706 157.074C230.397 172.251 221.318 185.639 208.813 195.258C196.308 204.877 181.04 210.217 165.265 210.489C149.491 210.761 134.048 205.949 121.219 196.766C108.39 187.583 98.8564 174.516 94.0275 159.497C89.1986 144.477 89.3307 128.302 94.4042 113.364C99.4778 98.4249 109.224 85.5151 122.201 76.5429C135.178 67.5706 150.697 63.0122 166.465 63.5414" stroke="url(#paint0_linear_2590_3)" stroke-width="25"/>
<path d="M164 210.5C154.24 210.5 144.577 208.556 135.576 204.782C126.575 201.007 118.416 195.478 111.575 188.516C104.734 181.554 99.3484 173.3 95.7319 164.234C92.1153 155.169 90.3406 145.474 90.5112 135.715C90.6819 125.956 92.7945 116.329 96.7257 107.396C100.657 98.462 106.328 90.4009 113.408 83.6827C120.489 76.9645 128.836 71.7237 137.963 68.2662C147.091 64.8087 156.815 63.2037 166.57 63.5449" stroke="#2D6281" stroke-width="25"/>
<g filter="url(#filter0_d_2590_3)">
<circle cx="65" cy="164" r="30" fill="white"/>
</g>
<path d="M58.5517 167.322C57.7066 167.322 56.9081 167.172 56.1562 166.871C55.4114 166.563 54.7489 166.09 54.1689 165.453C53.596 164.816 53.1448 163.999 52.8154 163.004C52.4859 162.008 52.3212 160.823 52.3212 159.448V159.427C52.3212 157.701 52.5719 156.222 53.0732 154.99C53.5816 153.758 54.3049 152.817 55.2431 152.165C56.1812 151.506 57.3056 151.177 58.6161 151.177C59.5686 151.177 60.428 151.349 61.1943 151.692C61.9605 152.036 62.5943 152.512 63.0956 153.121C63.6041 153.723 63.9371 154.417 64.0946 155.205L64.1161 155.323H61.3876L61.3446 155.216C61.2086 154.858 61.0116 154.546 60.7538 154.281C60.5032 154.016 60.1952 153.812 59.83 153.669C59.4719 153.519 59.0637 153.443 58.6054 153.443C57.7818 153.443 57.1086 153.687 56.5859 154.174C56.0631 154.654 55.6728 155.298 55.415 156.107C55.1571 156.91 55.0103 157.805 54.9745 158.793C54.9674 158.886 54.9638 158.983 54.9638 159.083C54.9638 159.176 54.9638 159.273 54.9638 159.373L55.4364 161.951C55.4364 162.531 55.5725 163.058 55.8446 163.53C56.1239 164.003 56.4963 164.379 56.9618 164.658C57.4273 164.93 57.9465 165.066 58.5195 165.066C59.0924 165.066 59.6116 164.93 60.0771 164.658C60.5497 164.386 60.9221 164.021 61.1943 163.562C61.4736 163.097 61.6132 162.578 61.6132 162.005V161.983C61.6132 161.396 61.4807 160.873 61.2157 160.415C60.9508 159.957 60.5855 159.599 60.12 159.341C59.6617 159.076 59.1389 158.943 58.5517 158.943C57.9644 158.943 57.4345 159.072 56.9618 159.33C56.4963 159.588 56.1239 159.942 55.8446 160.394C55.5725 160.845 55.4364 161.36 55.4364 161.94V161.951H54.7919V159.223H55.0927C55.2932 158.779 55.5833 158.374 55.9628 158.009C56.3495 157.644 56.8186 157.354 57.37 157.139C57.9215 156.917 58.5481 156.806 59.2499 156.806C60.2454 156.806 61.1226 157.028 61.8818 157.472C62.648 157.909 63.246 158.51 63.6757 159.276C64.1126 160.043 64.331 160.916 64.331 161.897V161.919C64.331 162.965 64.0803 163.896 63.579 164.712C63.0849 165.521 62.401 166.159 61.5273 166.624C60.6607 167.09 59.6689 167.322 58.5517 167.322ZM71.8136 167.29C70.682 167.29 69.6902 167.1 68.838 166.721C67.9929 166.341 67.3233 165.818 66.8292 165.152C66.3422 164.479 66.0629 163.706 65.9913 162.832L65.9805 162.703H68.6231L68.6339 162.811C68.684 163.24 68.8451 163.623 69.1173 163.96C69.3894 164.289 69.7546 164.551 70.213 164.744C70.6713 164.93 71.2048 165.023 71.8136 165.023C72.408 165.023 72.9272 164.923 73.3712 164.723C73.8223 164.515 74.1733 164.229 74.4239 163.863C74.6746 163.498 74.7999 163.079 74.7999 162.606V162.585C74.7999 161.769 74.517 161.142 73.9513 160.705C73.3855 160.268 72.6049 160.05 71.6095 160.05H69.7725V157.987H71.5557C72.1215 157.987 72.6192 157.887 73.0489 157.687C73.4786 157.486 73.8116 157.214 74.0479 156.87C74.2843 156.519 74.4024 156.118 74.4024 155.667V155.646C74.4024 155.173 74.2986 154.772 74.0909 154.442C73.8904 154.106 73.5932 153.852 73.1993 153.68C72.8126 153.501 72.3435 153.411 71.7921 153.411C71.2478 153.411 70.7644 153.501 70.3419 153.68C69.9265 153.859 69.5935 154.117 69.3429 154.453C69.0922 154.783 68.9418 155.176 68.8917 155.635L68.8809 155.731H66.3028L66.3136 155.613C66.3995 154.725 66.6752 153.952 67.1407 153.293C67.6134 152.634 68.2436 152.122 69.0313 151.757C69.8263 151.392 70.7465 151.209 71.7921 151.209C72.8591 151.209 73.7865 151.381 74.5743 151.725C75.3621 152.068 75.9708 152.545 76.4005 153.153C76.8373 153.762 77.0557 154.471 77.0557 155.28V155.302C77.0557 155.939 76.9125 156.505 76.6261 156.999C76.3468 157.486 75.96 157.891 75.4659 158.213C74.9789 158.535 74.4239 158.761 73.8009 158.89V158.943C74.9467 159.051 75.8669 159.43 76.5616 160.082C77.2563 160.727 77.6036 161.586 77.6036 162.66V162.682C77.6036 163.584 77.3601 164.382 76.8731 165.077C76.3861 165.772 75.7058 166.316 74.8321 166.71C73.9656 167.097 72.9594 167.29 71.8136 167.29Z" fill="#2F2F30"/>
<path d="M50.9622 175.082H50.7473V177H50.0677V172.789H50.7473V174.551H50.9622L52.5911 172.789H53.4075L51.4583 174.832V174.711L53.4817 177H52.6106L50.9622 175.082ZM55.0894 175.352C55.0607 175.737 54.9995 176.055 54.9058 176.305C54.8146 176.555 54.6883 176.74 54.5269 176.859C54.368 176.979 54.1714 177.039 53.937 177.039C53.8641 177.039 53.8016 177.034 53.7495 177.023C53.6974 177.016 53.6571 177.007 53.6284 176.996V176.383C53.6467 176.388 53.6792 176.395 53.7261 176.402C53.773 176.408 53.8211 176.41 53.8706 176.41C54.0008 176.41 54.1063 176.361 54.187 176.262C54.2678 176.163 54.329 176.03 54.3706 175.863C54.4149 175.694 54.4435 175.505 54.4566 175.297L54.6363 172.789H57.3902V177H56.7105V173.352H55.2456L55.0894 175.352ZM58.4861 177V172.789H59.1658V175.93H59.5252L59.0642 176.18L61.3103 172.789H61.99V177H61.3103V173.859H60.9509L61.4119 173.609L59.1658 177H58.4861ZM64.8125 177.074C64.4115 177.074 64.0664 176.986 63.7773 176.809C63.4909 176.632 63.2695 176.382 63.1133 176.059C62.9596 175.733 62.8828 175.35 62.8828 174.91V174.906C62.8828 174.471 62.9596 174.09 63.1133 173.762C63.2695 173.434 63.4896 173.177 63.7734 172.992C64.0573 172.807 64.3893 172.715 64.7695 172.715C65.1523 172.715 65.4805 172.803 65.7539 172.98C66.0299 173.158 66.2409 173.405 66.3867 173.723C66.5352 174.038 66.6094 174.405 66.6094 174.824V175.09H63.2344V174.547H66.2617L65.9258 175.043V174.773C65.9258 174.443 65.8763 174.171 65.7773 173.957C65.6784 173.743 65.5417 173.585 65.3672 173.48C65.1927 173.374 64.9922 173.32 64.7656 173.32C64.5391 173.32 64.3359 173.376 64.1562 173.488C63.9792 173.598 63.8385 173.76 63.7344 173.977C63.6302 174.193 63.5781 174.458 63.5781 174.773V175.043C63.5781 175.342 63.6289 175.599 63.7305 175.812C63.832 176.023 63.9766 176.186 64.1641 176.301C64.3516 176.413 64.5729 176.469 64.8281 176.469C65.0182 176.469 65.1836 176.443 65.3242 176.391C65.4648 176.339 65.5807 176.272 65.6719 176.191C65.763 176.111 65.8268 176.029 65.8633 175.945L65.8789 175.91H66.5586L66.5508 175.941C66.5143 176.085 66.4492 176.224 66.3555 176.359C66.2643 176.492 66.1458 176.613 66 176.723C65.8542 176.829 65.681 176.915 65.4805 176.98C65.2826 177.043 65.0599 177.074 64.8125 177.074ZM70.2639 177V175.094H68.178V177H67.4983V172.789H68.178V174.531H70.2639V172.789H70.9436V177H70.2639ZM75.0903 172.789V173.352H73.727V177H73.0473V173.352H71.6841V172.789H75.0903ZM76.9362 177.074C76.6706 177.074 76.431 177.023 76.2175 176.922C76.0066 176.82 75.8386 176.676 75.7136 176.488C75.5912 176.301 75.53 176.079 75.53 175.824V175.816C75.53 175.566 75.5899 175.353 75.7097 175.176C75.8295 174.996 76.004 174.855 76.2331 174.754C76.4623 174.652 76.7396 174.592 77.0652 174.574L78.612 174.48V175.023L77.1472 175.117C76.8269 175.135 76.5925 175.202 76.4441 175.316C76.2982 175.431 76.2253 175.592 76.2253 175.801V175.809C76.2253 176.022 76.306 176.189 76.4675 176.309C76.629 176.426 76.8321 176.484 77.0769 176.484C77.3086 176.484 77.5144 176.439 77.6941 176.348C77.8737 176.254 78.0144 176.128 78.1159 175.969C78.2201 175.81 78.2722 175.63 78.2722 175.43V174.117C78.2722 173.857 78.1928 173.659 78.0339 173.523C77.8777 173.385 77.642 173.316 77.3269 173.316C77.0743 173.316 76.8672 173.362 76.7058 173.453C76.5443 173.542 76.4362 173.668 76.3816 173.832L76.3777 173.844H75.698L75.7019 173.82C75.7383 173.599 75.8295 173.406 75.9753 173.242C76.1237 173.076 76.3152 172.947 76.5495 172.855C76.7839 172.762 77.0508 172.715 77.3503 172.715C77.6941 172.715 77.9844 172.771 78.2214 172.883C78.461 172.995 78.642 173.156 78.7644 173.367C78.8894 173.576 78.9519 173.826 78.9519 174.117V177H78.2722V176.379H78.2097C78.1211 176.527 78.0131 176.654 77.8855 176.758C77.7605 176.862 77.6185 176.941 77.4597 176.996C77.3008 177.048 77.1264 177.074 76.9362 177.074Z" fill="#2F2F30"/>
<g filter="url(#filter1_d_2590_3)">
<circle cx="248" cy="200" r="30" fill="white"/>
</g>
<path d="M242.916 203V200.024H235.257V197.704C235.672 197.017 236.091 196.329 236.514 195.642C236.936 194.954 237.359 194.267 237.781 193.579C238.211 192.892 238.637 192.208 239.059 191.527C239.489 190.847 239.919 190.17 240.349 189.497C240.778 188.824 241.204 188.158 241.627 187.499H245.559V197.747H247.653V200.024H245.559V203H242.916ZM237.781 197.812H242.959V189.647H242.851C242.515 190.163 242.175 190.686 241.831 191.216C241.494 191.746 241.154 192.283 240.81 192.827C240.474 193.364 240.134 193.905 239.79 194.449C239.446 194.993 239.106 195.538 238.769 196.082C238.433 196.619 238.103 197.156 237.781 197.693V197.812ZM254.953 203.322C253.893 203.322 252.955 203.125 252.139 202.731C251.33 202.338 250.685 201.804 250.205 201.131C249.733 200.451 249.46 199.688 249.389 198.843L249.378 198.692H251.945L251.967 198.778C252.038 199.201 252.207 199.588 252.472 199.938C252.744 200.282 253.095 200.558 253.524 200.766C253.954 200.966 254.434 201.066 254.964 201.066C255.58 201.066 256.121 200.934 256.586 200.669C257.052 200.404 257.413 200.039 257.671 199.573C257.936 199.108 258.068 198.574 258.068 197.973V197.951C258.068 197.357 257.936 196.83 257.671 196.372C257.406 195.907 257.041 195.545 256.575 195.287C256.117 195.022 255.587 194.89 254.985 194.89C254.549 194.89 254.144 194.954 253.772 195.083C253.399 195.212 253.066 195.402 252.773 195.652C252.629 195.781 252.493 195.921 252.364 196.071C252.243 196.215 252.135 196.372 252.042 196.544H249.647L250.399 187.499H259.809V189.766H252.579L252.149 194.46H252.268C252.49 194.109 252.769 193.812 253.106 193.568C253.449 193.325 253.84 193.139 254.276 193.01C254.713 192.874 255.182 192.806 255.684 192.806C256.658 192.806 257.524 193.028 258.283 193.472C259.042 193.909 259.637 194.51 260.066 195.276C260.503 196.035 260.722 196.909 260.722 197.897V197.919C260.722 198.986 260.475 199.928 259.981 200.744C259.494 201.553 258.817 202.187 257.95 202.646C257.084 203.097 256.085 203.322 254.953 203.322Z" fill="#2F2F30"/>
<path d="M231.785 211.082H231.57V213H230.891V208.789H231.57V210.551H231.785L233.414 208.789H234.231L232.281 210.832V210.711L234.305 213H233.434L231.785 211.082ZM235.913 211.352C235.884 211.737 235.823 212.055 235.729 212.305C235.638 212.555 235.511 212.74 235.35 212.859C235.191 212.979 234.995 213.039 234.76 213.039C234.687 213.039 234.625 213.034 234.573 213.023C234.521 213.016 234.48 213.007 234.452 212.996V212.383C234.47 212.388 234.502 212.395 234.549 212.402C234.596 212.408 234.644 212.41 234.694 212.41C234.824 212.41 234.929 212.361 235.01 212.262C235.091 212.163 235.152 212.03 235.194 211.863C235.238 211.694 235.267 211.505 235.28 211.297L235.459 208.789H238.213V213H237.534V209.352H236.069L235.913 211.352ZM239.309 213V208.789H239.989V211.93H240.348L239.887 212.18L242.133 208.789H242.813V213H242.133V209.859H241.774L242.235 209.609L239.989 213H239.309ZM245.636 213.074C245.235 213.074 244.89 212.986 244.6 212.809C244.314 212.632 244.093 212.382 243.936 212.059C243.783 211.733 243.706 211.35 243.706 210.91V210.906C243.706 210.471 243.783 210.09 243.936 209.762C244.093 209.434 244.313 209.177 244.597 208.992C244.88 208.807 245.212 208.715 245.593 208.715C245.975 208.715 246.304 208.803 246.577 208.98C246.853 209.158 247.064 209.405 247.21 209.723C247.358 210.038 247.432 210.405 247.432 210.824V211.09H244.057V210.547H247.085L246.749 211.043V210.773C246.749 210.443 246.699 210.171 246.6 209.957C246.502 209.743 246.365 209.585 246.19 209.48C246.016 209.374 245.815 209.32 245.589 209.32C245.362 209.32 245.159 209.376 244.979 209.488C244.802 209.598 244.662 209.76 244.557 209.977C244.453 210.193 244.401 210.458 244.401 210.773V211.043C244.401 211.342 244.452 211.599 244.554 211.812C244.655 212.023 244.8 212.186 244.987 212.301C245.175 212.413 245.396 212.469 245.651 212.469C245.841 212.469 246.007 212.443 246.147 212.391C246.288 212.339 246.404 212.272 246.495 212.191C246.586 212.111 246.65 212.029 246.686 211.945L246.702 211.91H247.382L247.374 211.941C247.337 212.085 247.272 212.224 247.179 212.359C247.087 212.492 246.969 212.613 246.823 212.723C246.677 212.829 246.504 212.915 246.304 212.98C246.106 213.043 245.883 213.074 245.636 213.074ZM251.087 213V211.094H249.001V213H248.321V208.789H249.001V210.531H251.087V208.789H251.767V213H251.087ZM255.913 208.789V209.352H254.55V213H253.87V209.352H252.507V208.789H255.913ZM258.232 213.074C257.834 213.074 257.489 212.987 257.197 212.812C256.908 212.635 256.684 212.384 256.525 212.059C256.369 211.733 256.291 211.346 256.291 210.898V210.891C256.291 210.44 256.369 210.052 256.525 209.727C256.684 209.401 256.908 209.151 257.197 208.977C257.489 208.802 257.834 208.715 258.232 208.715C258.633 208.715 258.978 208.802 259.267 208.977C259.556 209.151 259.779 209.401 259.935 209.727C260.094 210.052 260.173 210.44 260.173 210.891V210.898C260.173 211.346 260.094 211.733 259.935 212.059C259.779 212.384 259.556 212.635 259.267 212.812C258.978 212.987 258.633 213.074 258.232 213.074ZM258.232 212.473C258.498 212.473 258.723 212.41 258.908 212.285C259.093 212.16 259.233 211.98 259.33 211.746C259.429 211.512 259.478 211.229 259.478 210.898V210.891C259.478 210.557 259.429 210.273 259.33 210.039C259.233 209.805 259.093 209.626 258.908 209.504C258.723 209.379 258.498 209.316 258.232 209.316C257.966 209.316 257.741 209.379 257.556 209.504C257.371 209.626 257.229 209.805 257.13 210.039C257.034 210.273 256.986 210.557 256.986 210.891V210.898C256.986 211.229 257.034 211.512 257.13 211.746C257.229 211.98 257.371 212.16 257.556 212.285C257.741 212.41 257.966 212.473 258.232 212.473ZM261.062 213V208.789H262.847C263.246 208.789 263.556 208.889 263.777 209.09C263.999 209.288 264.109 209.552 264.109 209.883V209.891C264.109 210.099 264.044 210.29 263.914 210.465C263.784 210.637 263.62 210.743 263.422 210.785V210.848C263.601 210.871 263.756 210.927 263.887 211.016C264.017 211.102 264.117 211.211 264.187 211.344C264.26 211.474 264.297 211.621 264.297 211.785V211.793C264.297 212.035 264.239 212.247 264.125 212.43C264.01 212.609 263.845 212.75 263.629 212.852C263.415 212.951 263.157 213 262.855 213H261.062ZM261.742 212.438H262.828C263.086 212.438 263.28 212.382 263.41 212.27C263.54 212.155 263.605 211.992 263.605 211.781V211.773C263.605 211.549 263.53 211.387 263.379 211.285C263.228 211.184 263.001 211.133 262.699 211.133H261.742V212.438ZM261.742 210.57H262.64C262.914 210.57 263.114 210.518 263.242 210.414C263.37 210.31 263.433 210.159 263.433 209.961V209.953C263.433 209.773 263.379 209.629 263.269 209.52C263.16 209.408 262.987 209.352 262.75 209.352H261.742V210.57Z" fill="#2F2F30"/>
<g filter="url(#filter2_d_2590_3)">
<circle cx="238" cy="65" r="30" fill="white"/>
</g>
<path d="M231.971 68.29C230.839 68.29 229.847 68.1003 228.995 67.7207C228.15 67.3411 227.48 66.8184 226.986 66.1523C226.499 65.4792 226.22 64.7057 226.148 63.832L226.138 63.7031H228.78L228.791 63.8105C228.841 64.2402 229.002 64.6234 229.274 64.96C229.546 65.2894 229.912 65.5508 230.37 65.7441C230.828 65.9303 231.362 66.0234 231.971 66.0234C232.565 66.0234 233.084 65.9232 233.528 65.7227C233.979 65.515 234.33 65.2285 234.581 64.8633C234.832 64.498 234.957 64.0791 234.957 63.6064V63.585C234.957 62.7686 234.674 62.1419 234.108 61.7051C233.543 61.2682 232.762 61.0498 231.767 61.0498H229.93V58.9873H231.713C232.279 58.9873 232.776 58.887 233.206 58.6865C233.636 58.486 233.969 58.2139 234.205 57.8701C234.441 57.5192 234.559 57.1182 234.559 56.667V56.6455C234.559 56.1729 234.456 55.7718 234.248 55.4424C234.047 55.1058 233.75 54.8516 233.356 54.6797C232.97 54.5007 232.501 54.4111 231.949 54.4111C231.405 54.4111 230.921 54.5007 230.499 54.6797C230.084 54.8587 229.751 55.1165 229.5 55.4531C229.249 55.7826 229.099 56.1764 229.049 56.6348L229.038 56.7314H226.46L226.471 56.6133C226.557 55.7253 226.832 54.9518 227.298 54.293C227.77 53.6341 228.401 53.1221 229.188 52.7568C229.983 52.3916 230.904 52.209 231.949 52.209C233.016 52.209 233.944 52.3809 234.731 52.7246C235.519 53.0684 236.128 53.5446 236.558 54.1533C236.994 54.762 237.213 55.471 237.213 56.2803V56.3018C237.213 56.9391 237.07 57.5049 236.783 57.999C236.504 58.486 236.117 58.8906 235.623 59.2129C235.136 59.5352 234.581 59.7607 233.958 59.8896V59.9434C235.104 60.0508 236.024 60.4303 236.719 61.082C237.413 61.7266 237.761 62.5859 237.761 63.6602V63.6816C237.761 64.584 237.517 65.3825 237.03 66.0771C236.543 66.7718 235.863 67.3161 234.989 67.71C234.123 68.0967 233.116 68.29 231.971 68.29ZM240.431 68L247.198 54.873V54.7656H239.174V52.499H249.959V54.8086L243.331 68H240.431Z" fill="#2F2F30"/>
<path d="M221.785 76.082H221.57V78H220.891V73.7891H221.57V75.5508H221.785L223.414 73.7891H224.231L222.281 75.832V75.7109L224.305 78H223.434L221.785 76.082ZM225.913 76.3516C225.884 76.737 225.823 77.0547 225.729 77.3047C225.638 77.5547 225.511 77.7396 225.35 77.8594C225.191 77.9792 224.995 78.0391 224.76 78.0391C224.687 78.0391 224.625 78.0339 224.573 78.0234C224.521 78.0156 224.48 78.0065 224.452 77.9961V77.3828C224.47 77.388 224.502 77.3945 224.549 77.4023C224.596 77.4076 224.644 77.4102 224.694 77.4102C224.824 77.4102 224.929 77.3607 225.01 77.2617C225.091 77.1628 225.152 77.0299 225.194 76.8633C225.238 76.694 225.267 76.5052 225.28 76.2969L225.459 73.7891H228.213V78H227.534V74.3516H226.069L225.913 76.3516ZM229.309 78V73.7891H229.989V76.9297H230.348L229.887 77.1797L232.133 73.7891H232.813V78H232.133V74.8594H231.774L232.235 74.6094L229.989 78H229.309ZM235.636 78.0742C235.235 78.0742 234.89 77.9857 234.6 77.8086C234.314 77.6315 234.093 77.3815 233.936 77.0586C233.783 76.7331 233.706 76.3503 233.706 75.9102V75.9062C233.706 75.4714 233.783 75.0898 233.936 74.7617C234.093 74.4336 234.313 74.1771 234.597 73.9922C234.88 73.8073 235.212 73.7148 235.593 73.7148C235.975 73.7148 236.304 73.8034 236.577 73.9805C236.853 74.1576 237.064 74.4049 237.21 74.7227C237.358 75.0378 237.432 75.4049 237.432 75.8242V76.0898H234.057V75.5469H237.085L236.749 76.043V75.7734C236.749 75.4427 236.699 75.1706 236.6 74.957C236.502 74.7435 236.365 74.5846 236.19 74.4805C236.016 74.3737 235.815 74.3203 235.589 74.3203C235.362 74.3203 235.159 74.3763 234.979 74.4883C234.802 74.5977 234.662 74.7604 234.557 74.9766C234.453 75.1927 234.401 75.4583 234.401 75.7734V76.043C234.401 76.3424 234.452 76.599 234.554 76.8125C234.655 77.0234 234.8 77.1862 234.987 77.3008C235.175 77.4128 235.396 77.4688 235.651 77.4688C235.841 77.4688 236.007 77.4427 236.147 77.3906C236.288 77.3385 236.404 77.2721 236.495 77.1914C236.586 77.1107 236.65 77.0286 236.686 76.9453L236.702 76.9102H237.382L237.374 76.9414C237.337 77.0846 237.272 77.224 237.179 77.3594C237.087 77.4922 236.969 77.6133 236.823 77.7227C236.677 77.8294 236.504 77.9154 236.304 77.9805C236.106 78.043 235.883 78.0742 235.636 78.0742ZM241.087 78V76.0938H239.001V78H238.321V73.7891H239.001V75.5312H241.087V73.7891H241.767V78H241.087ZM245.913 73.7891V74.3516H244.55V78H243.87V74.3516H242.507V73.7891H245.913ZM248.232 78.0742C247.834 78.0742 247.489 77.987 247.197 77.8125C246.908 77.6354 246.684 77.3841 246.525 77.0586C246.369 76.7331 246.291 76.3464 246.291 75.8984V75.8906C246.291 75.4401 246.369 75.0521 246.525 74.7266C246.684 74.401 246.908 74.151 247.197 73.9766C247.489 73.8021 247.834 73.7148 248.232 73.7148C248.633 73.7148 248.978 73.8021 249.267 73.9766C249.556 74.151 249.779 74.401 249.935 74.7266C250.094 75.0521 250.173 75.4401 250.173 75.8906V75.8984C250.173 76.3464 250.094 76.7331 249.935 77.0586C249.779 77.3841 249.556 77.6354 249.267 77.8125C248.978 77.987 248.633 78.0742 248.232 78.0742ZM248.232 77.4727C248.498 77.4727 248.723 77.4102 248.908 77.2852C249.093 77.1602 249.233 76.9805 249.33 76.7461C249.429 76.5117 249.478 76.2292 249.478 75.8984V75.8906C249.478 75.5573 249.429 75.2734 249.33 75.0391C249.233 74.8047 249.093 74.6263 248.908 74.5039C248.723 74.3789 248.498 74.3164 248.232 74.3164C247.966 74.3164 247.741 74.3789 247.556 74.5039C247.371 74.6263 247.229 74.8047 247.13 75.0391C247.034 75.2734 246.986 75.5573 246.986 75.8906V75.8984C246.986 76.2292 247.034 76.5117 247.13 76.7461C247.229 76.9805 247.371 77.1602 247.556 77.2852C247.741 77.4102 247.966 77.4727 248.232 77.4727ZM251.062 78V73.7891H252.847C253.246 73.7891 253.556 73.8893 253.777 74.0898C253.999 74.2878 254.109 74.5521 254.109 74.8828V74.8906C254.109 75.099 254.044 75.2904 253.914 75.4648C253.784 75.6367 253.62 75.7435 253.422 75.7852V75.8477C253.601 75.8711 253.756 75.9271 253.887 76.0156C254.017 76.1016 254.117 76.2109 254.187 76.3438C254.26 76.474 254.297 76.6211 254.297 76.7852V76.793C254.297 77.0352 254.239 77.2474 254.125 77.4297C254.01 77.6094 253.845 77.75 253.629 77.8516C253.415 77.9505 253.157 78 252.855 78H251.062ZM251.742 77.4375H252.828C253.086 77.4375 253.28 77.3815 253.41 77.2695C253.54 77.1549 253.605 76.9922 253.605 76.7812V76.7734C253.605 76.5495 253.53 76.3867 253.379 76.2852C253.228 76.1836 253.001 76.1328 252.699 76.1328H251.742V77.4375ZM251.742 75.5703H252.64C252.914 75.5703 253.114 75.5182 253.242 75.4141C253.37 75.3099 253.433 75.1589 253.433 74.9609V74.9531C253.433 74.7734 253.379 74.6289 253.269 74.5195C253.16 74.4076 252.987 74.3516 252.75 74.3516H251.742V75.5703Z" fill="#2F2F30"/>
<defs>
<filter id="filter0_d_2590_3" x="0" y="99" width="130" height="130" filterUnits="userSpaceOnUse" color-interpolation-filters="sRGB">
<feFlood flood-opacity="0" result="BackgroundImageFix"/>
<feColorMatrix in="SourceAlpha" type="matrix" values="0 0 0 0 0 0 0 0 0 0 0 0 0 0 0 0 0 0 127 0" result="hardAlpha"/>
<feOffset/>
<feGaussianBlur stdDeviation="17.5"/>
<feComposite in2="hardAlpha" operator="out"/>
<feColorMatrix type="matrix" values="0 0 0 0 0.184314 0 0 0 0 0.184314 0 0 0 0 0.188235 0 0 0 0.3 0"/>
<feBlend mode="normal" in2="BackgroundImageFix" result="effect1_dropShadow_2590_3"/>
<feBlend mode="normal" in="SourceGraphic" in2="effect1_dropShadow_2590_3" result="shape"/>
</filter>
<filter id="filter1_d_2590_3" x="183" y="135" width="130" height="130" filterUnits="userSpaceOnUse" color-interpolation-filters="sRGB">
<feFlood flood-opacity="0" result="BackgroundImageFix"/>
<feColorMatrix in="SourceAlpha" type="matrix" values="0 0 0 0 0 0 0 0 0 0 0 0 0 0 0 0 0 0 127 0" result="hardAlpha"/>
<feOffset/>
<feGaussianBlur stdDeviation="17.5"/>
<feComposite in2="hardAlpha" operator="out"/>
<feColorMatrix type="matrix" values="0 0 0 0 0.184314 0 0 0 0 0.184314 0 0 0 0 0.188235 0 0 0 0.3 0"/>
<feBlend mode="normal" in2="BackgroundImageFix" result="effect1_dropShadow_2590_3"/>
<feBlend mode="normal" in="SourceGraphic" in2="effect1_dropShadow_2590_3" result="shape"/>
</filter>
<filter id="filter2_d_2590_3" x="173" y="0" width="130" height="130" filterUnits="userSpaceOnUse" color-interpolation-filters="sRGB">
<feFlood flood-opacity="0" result="BackgroundImageFix"/>
<feColorMatrix in="SourceAlpha" type="matrix" values="0 0 0 0 0 0 0 0 0 0 0 0 0 0 0 0 0 0 127 0" result="hardAlpha"/>
<feOffset/>
<feGaussianBlur stdDeviation="17.5"/>
<feComposite in2="hardAlpha" operator="out"/>
<feColorMatrix type="matrix" values="0 0 0 0 0.184314 0 0 0 0 0.184314 0 0 0 0 0.188235 0 0 0 0.3 0"/>
<feBlend mode="normal" in2="BackgroundImageFix" result="effect1_dropShadow_2590_3"/>
<feBlend mode="normal" in="SourceGraphic" in2="effect1_dropShadow_2590_3" result="shape"/>
</filter>
<linearGradient id="paint0_linear_2590_3" x1="164.428" y1="223" x2="164.428" y2="51" gradientUnits="userSpaceOnUse">
<stop stop-color="#F0572D"/>
<stop offset="1" stop-color="#CE441E"/>
</linearGradient>
</defs>
</svg>
