<svg width="200" height="200" viewBox="0 0 200 200" fill="none" xmlns="http://www.w3.org/2000/svg">
<circle cx="100" cy="100" r="87.5" stroke="#2D6281" stroke-width="25"/>
<path d="M167.029 43.7561C180.725 60.0783 187.994 80.8371 187.474 102.138C186.953 123.439 178.678 143.817 164.201 159.451C149.724 175.085 130.04 184.899 108.842 187.052C87.6444 189.205 66.389 183.55 49.0642 171.146C31.7394 158.743 19.5357 140.444 14.7426 119.683C9.94956 98.9222 12.8966 77.1256 23.0308 58.3829C33.1649 39.6401 49.7898 25.2392 69.7864 17.8819C89.783 10.5245 111.777 10.7165 131.642 18.4217" stroke="url(#paint0_linear_212_15049)" stroke-width="25"/>
<defs>
<linearGradient id="paint0_linear_212_15049" x1="100.498" y1="200" x2="100.497" y2="1.27428e-06" gradientUnits="userSpaceOnUse">
<stop stop-color="#F0572D"/>
<stop offset="1" stop-color="#CE441E"/>
</linearGradient>
</defs>
</svg>
