<svg width="28" height="28" viewBox="0 0 28 28" fill="none" xmlns="http://www.w3.org/2000/svg">
<path d="M16.333 2.33331C16.9518 2.33331 17.5453 2.57915 17.9829 3.01673C18.4205 3.45432 18.6663 4.04781 18.6663 4.66665V6.99998H23.333C23.9518 6.99998 24.5453 7.24581 24.9829 7.6834C25.4205 8.12098 25.6663 8.71448 25.6663 9.33331L12.658 22.1666V24.5H4.66634C4.0475 24.5 3.45401 24.2541 3.01643 23.8166C2.57884 23.379 2.33301 22.7855 2.33301 22.1666V9.33331C2.33301 8.03831 3.37134 6.99998 4.66634 6.99998H9.33301V4.66665C9.33301 3.37165 10.3713 2.33331 11.6663 2.33331H16.333ZM16.333 6.99998V4.66665H11.6663V6.99998H16.333ZM24.5463 14.1516C24.383 14.1516 24.2197 14.2216 24.0913 14.35L22.9247 15.5166L25.3163 17.9083L26.483 16.7416C26.7397 16.4966 26.7397 16.0883 26.483 15.8433L24.9897 14.35C24.933 14.2887 24.8645 14.2396 24.7883 14.2055C24.7121 14.1714 24.6298 14.1531 24.5463 14.1516ZM22.248 16.1933L15.1663 23.2633V25.6666H17.5697L24.6397 18.585L22.248 16.1933Z" fill="white"/>
</svg>
