<svg width="80" height="80" viewBox="0 0 80 80" fill="none" xmlns="http://www.w3.org/2000/svg">
<circle cx="40" cy="40" r="40" fill="#2D6281"/>
<circle cx="67" cy="67" r="12" fill="url(#paint0_linear_2010_2)" stroke="white" stroke-width="2"/>
<path d="M65.5708 70.5001L62.2458 67.1751L63.0771 66.3438L65.5708 68.8376L70.9229 63.4855L71.7542 64.3167L65.5708 70.5001Z" fill="white"/>
<path d="M31.875 38C34.9816 38 37.5 35.4816 37.5 32.375C37.5 29.2684 34.9816 26.75 31.875 26.75C28.7684 26.75 26.25 29.2684 26.25 32.375C26.25 35.4816 28.7684 38 31.875 38Z" fill="white"/>
<path d="M38.2812 41.125C36.0813 40.0078 33.6531 39.5625 31.875 39.5625C28.3922 39.5625 21.25 41.6984 21.25 45.9688V49.25H32.9688V47.9945C32.9688 46.5102 33.5938 45.0219 34.6875 43.7812C35.5602 42.7906 36.782 41.8711 38.2812 41.125Z" fill="white"/>
<path d="M46.5625 40.5C42.4945 40.5 34.375 43.0125 34.375 48V51.75H58.75V48C58.75 43.0125 50.6305 40.5 46.5625 40.5Z" fill="white"/>
<path d="M46.5625 38C50.3595 38 53.4375 34.922 53.4375 31.125C53.4375 27.328 50.3595 24.25 46.5625 24.25C42.7655 24.25 39.6875 27.328 39.6875 31.125C39.6875 34.922 42.7655 38 46.5625 38Z" fill="white"/>
<defs>
<linearGradient id="paint0_linear_2010_2" x1="67.0647" y1="80" x2="67.0647" y2="54" gradientUnits="userSpaceOnUse">
<stop stop-color="#F0572D"/>
<stop offset="1" stop-color="#CE441E"/>
</linearGradient>
</defs>
</svg>
