<svg width="80" height="80" viewBox="0 0 80 80" fill="none" xmlns="http://www.w3.org/2000/svg">
<circle cx="40" cy="40" r="40" fill="url(#paint0_linear_2012_11)"/>
<path d="M46.3983 35.6551C46.0683 30.5401 43.9967 25.5534 40.11 21.6667C36.3486 25.4089 34.0415 30.3675 33.6017 35.6551C35.9483 36.9017 38.1117 38.5151 40 40.4767C41.8883 38.5334 44.0517 36.9201 46.3983 35.6551ZM34.4817 40.5134C34.225 40.3301 33.9317 40.1651 33.6567 39.9817C33.9317 40.1834 34.225 40.3301 34.4817 40.5134ZM40 46.3251C36.0583 40.3117 29.33 36.3334 21.6667 36.3334C21.6667 46.0867 27.8267 54.3368 36.3883 57.3984C37.5433 57.8201 38.7533 58.1317 40 58.3334C41.2467 58.1134 42.4383 57.8018 43.6117 57.3984C52.1733 54.3368 58.3333 46.0867 58.3333 36.3334C50.67 36.3334 43.9417 40.3117 40 46.3251Z" fill="white"/>
<defs>
<linearGradient id="paint0_linear_2012_11" x1="40.199" y1="80" x2="40.199" y2="5.0971e-07" gradientUnits="userSpaceOnUse">
<stop stop-color="#F0572D"/>
<stop offset="1" stop-color="#CE441E"/>
</linearGradient>
</defs>
</svg>
