<svg width="26" height="26" viewBox="0 0 26 26" fill="none" xmlns="http://www.w3.org/2000/svg">
<path d="M17.0625 14.625H8.9375V13H0.8125V22.9531C0.8125 23.1147 0.876702 23.2697 0.990982 23.384C1.10526 23.4983 1.26026 23.5625 1.42188 23.5625H24.5781C24.7397 23.5625 24.8947 23.4983 25.009 23.384C25.1233 23.2697 25.1875 23.1147 25.1875 22.9531V13H17.0625V14.625ZM25.1875 6.29688C25.1875 6.13526 25.1233 5.98026 25.009 5.86598C24.8947 5.7517 24.7397 5.6875 24.5781 5.6875H19.5V2.84375C19.5 2.73601 19.4572 2.63267 19.381 2.55649C19.3048 2.4803 19.2015 2.4375 19.0938 2.4375H6.90625C6.79851 2.4375 6.69517 2.4803 6.61899 2.55649C6.5428 2.63267 6.5 2.73601 6.5 2.84375V5.6875H1.42188C1.26026 5.6875 1.10526 5.7517 0.990982 5.86598C0.876702 5.98026 0.8125 6.13526 0.8125 6.29688V11.375H25.1875V6.29688ZM17.4688 5.6875H8.53125V4.46875H17.4688V5.6875Z" fill="url(#paint0_linear_216_17649)"/>
<defs>
<linearGradient id="paint0_linear_216_17649" x1="13.0606" y1="23.5625" x2="13.0606" y2="2.4375" gradientUnits="userSpaceOnUse">
<stop stop-color="#F0572D"/>
<stop offset="1" stop-color="#CE441E"/>
</linearGradient>
</defs>
</svg>
