<svg width="80" height="80" viewBox="0 0 80 80" fill="none" xmlns="http://www.w3.org/2000/svg">
<circle cx="40" cy="40" r="40" fill="url(#paint0_linear_2012_13)"/>
<path d="M40 51.6666H43.3333V29.9999L53.99 34.5666C54.29 34.6952 54.5456 34.909 54.7252 35.1816C54.9047 35.4542 55.0003 35.7735 55 36.0999V51.6666H58.3333V54.9999H21.6667V51.6666H25V29.4166C24.9999 29.0941 25.0935 28.7785 25.2692 28.5081C25.4449 28.2378 25.6953 28.0242 25.99 27.8932L38.8283 22.1882C38.9551 22.1319 39.0939 22.1081 39.2322 22.119C39.3704 22.1299 39.5038 22.1752 39.6202 22.2507C39.7365 22.3261 39.8322 22.4295 39.8985 22.5513C39.9649 22.6731 39.9997 22.8095 40 22.9482V51.6666Z" fill="white"/>
<defs>
<linearGradient id="paint0_linear_2012_13" x1="40.199" y1="80" x2="40.199" y2="5.0971e-07" gradientUnits="userSpaceOnUse">
<stop stop-color="#F0572D"/>
<stop offset="1" stop-color="#CE441E"/>
</linearGradient>
</defs>
</svg>
