<svg width="80" height="80" viewBox="0 0 80 80" fill="none" xmlns="http://www.w3.org/2000/svg">
<circle cx="40" cy="40" r="40" fill="url(#paint0_linear_2012_14)"/>
<path d="M21.6667 51.6665V26.6665H25V43.3332H38.3334V29.9998H51.6667C53.5 29.9998 55.0695 30.6526 56.375 31.9582C57.6806 33.2637 58.3334 34.8332 58.3334 36.6665V51.6665H55V46.6665H25V51.6665H21.6667ZM31.6667 41.6665C30.2778 41.6665 29.0972 41.1804 28.125 40.2082C27.1528 39.2359 26.6667 38.0554 26.6667 36.6665C26.6667 35.2776 27.1528 34.0971 28.125 33.1248C29.0972 32.1526 30.2778 31.6665 31.6667 31.6665C33.0556 31.6665 34.2361 32.1526 35.2084 33.1248C36.1806 34.0971 36.6667 35.2776 36.6667 36.6665C36.6667 38.0554 36.1806 39.2359 35.2084 40.2082C34.2361 41.1804 33.0556 41.6665 31.6667 41.6665Z" fill="white"/>
<defs>
<linearGradient id="paint0_linear_2012_14" x1="40.199" y1="80" x2="40.199" y2="5.0971e-07" gradientUnits="userSpaceOnUse">
<stop stop-color="#F0572D"/>
<stop offset="1" stop-color="#CE441E"/>
</linearGradient>
</defs>
</svg>
