<svg width="80" height="80" viewBox="0 0 80 80" fill="none" xmlns="http://www.w3.org/2000/svg">
<circle cx="40" cy="40" r="40" fill="url(#paint0_linear_2012_9)"/>
<path d="M33.1324 32.6722C34.9052 32.6722 36.3407 34.1077 36.3407 35.8806V53.2972C36.3407 54.1482 36.0027 54.9642 35.401 55.5659C34.7993 56.1676 33.9833 56.5056 33.1324 56.5056H24.875C24.0241 56.5056 23.2081 56.1676 22.6064 55.5659C22.0047 54.9642 21.6667 54.1482 21.6667 53.2972V35.8806C21.6667 34.1077 23.104 32.6722 24.875 32.6722H33.1324ZM29.462 50.0797H28.5454C28.1807 50.0797 27.8309 50.2246 27.5731 50.4825C27.3152 50.7403 27.1704 51.0901 27.1704 51.4547C27.1704 51.8194 27.3152 52.1692 27.5731 52.427C27.8309 52.6849 28.1807 52.8297 28.5454 52.8297H29.462C29.8267 52.8297 30.1764 52.6849 30.4343 52.427C30.6922 52.1692 30.837 51.8194 30.837 51.4547C30.837 51.0901 30.6922 50.7403 30.4343 50.4825C30.1764 50.2246 29.8267 50.0797 29.462 50.0797ZM56.9584 48.2501C57.3067 48.2502 57.6421 48.3825 57.8966 48.6204C58.1512 48.8582 58.306 49.1838 58.3297 49.5314C58.3535 49.8789 58.2444 50.2226 58.0246 50.4928C57.8047 50.763 57.4905 50.9398 57.1454 50.9872L56.9584 51.0001L38.1667 50.9982V48.2482L56.9584 48.2501ZM51.4584 27.1667C53.2294 27.1667 54.6667 28.6041 54.6667 30.3751V44.1251C54.6667 44.976 54.3287 45.792 53.727 46.3937C53.1253 46.9954 52.3093 47.3334 51.4584 47.3334H38.1667V34.5001C38.167 33.575 37.8176 32.684 37.1886 32.0057C36.5596 31.3274 35.6975 30.912 34.775 30.8426L34.5 30.8334L25.3334 30.8316V30.3751C25.3334 28.6041 26.7707 27.1667 28.5417 27.1667H51.4584Z" fill="white"/>
<defs>
<linearGradient id="paint0_linear_2012_9" x1="40.199" y1="80" x2="40.199" y2="5.0971e-07" gradientUnits="userSpaceOnUse">
<stop stop-color="#F0572D"/>
<stop offset="1" stop-color="#CE441E"/>
</linearGradient>
</defs>
</svg>
