<svg width="32" height="32" viewBox="0 0 32 32" fill="none" xmlns="http://www.w3.org/2000/svg">
<path d="M3.33203 7.33333V2H8.66536V3.33333H4.66536V7.33333H3.33203ZM27.332 7.33333V3.33333H23.332V2H28.6654V7.33333H27.332ZM3.33203 30V24.6667H4.66536V28.6667H8.66536V30H3.33203ZM23.332 30V28.6667H27.332V24.6667H28.6654V30H23.332ZM7.33203 26V6H24.6654V26H7.33203ZM12.6654 12.6667H19.332V11.3333H12.6654V12.6667ZM12.6654 16.6667H19.332V15.3333H12.6654V16.6667ZM12.6654 20.6667H19.332V19.3333H12.6654V20.6667Z" fill="url(#paint0_linear_216_17645)"/>
<defs>
<linearGradient id="paint0_linear_216_17645" x1="16.0617" y1="30" x2="16.0617" y2="2" gradientUnits="userSpaceOnUse">
<stop stop-color="#F0572D"/>
<stop offset="1" stop-color="#CE441E"/>
</linearGradient>
</defs>
</svg>
