<svg width="34" height="34" viewBox="0 0 34 34" fill="none" xmlns="http://www.w3.org/2000/svg">
<path d="M17.0013 31.1666C13.7194 30.3403 11.0097 28.457 8.87247 25.517C6.73519 22.5769 5.66702 19.3129 5.66797 15.725V7.08331L17.0013 2.83331L28.3346 7.08331V15.725C28.3346 19.3139 27.2665 22.5783 25.1301 25.5184C22.9938 28.4585 20.2842 30.3412 17.0013 31.1666ZM12.7513 22.6666H21.2513V15.5833H19.8346V14.1666C19.8346 13.3875 19.5574 12.7207 19.0031 12.1663C18.4487 11.6119 17.7814 11.3343 17.0013 11.3333C16.2212 11.3324 15.5544 11.61 15.001 12.1663C14.4475 12.7226 14.1699 13.3894 14.168 14.1666V15.5833H12.7513V22.6666ZM15.5846 15.5833V14.1666C15.5846 13.7653 15.7206 13.429 15.9926 13.158C16.2646 12.8869 16.6009 12.7509 17.0013 12.75C17.4017 12.749 17.7384 12.885 18.0114 13.158C18.2843 13.4309 18.4199 13.7671 18.418 14.1666V15.5833H15.5846Z" fill="url(#paint0_linear_216_17647)"/>
<defs>
<linearGradient id="paint0_linear_216_17647" x1="17.0577" y1="31.1666" x2="17.0577" y2="2.83331" gradientUnits="userSpaceOnUse">
<stop stop-color="#F0572D"/>
<stop offset="1" stop-color="#CE441E"/>
</linearGradient>
</defs>
</svg>
