<svg width="10" height="12" viewBox="0 0 10 12" fill="none" xmlns="http://www.w3.org/2000/svg">
<path fill-rule="evenodd" clip-rule="evenodd" d="M0 0H10V12H0V0ZM1.24998 1.19998H8.74999V3.60001H1.24998V1.19998ZM3.12498 4.79999H1.87497V6H3.12498V4.79999ZM4.37499 4.79999H5.62498V6H4.37499V4.79999ZM5.62498 7.20001H4.37499V8.39999H5.62498V7.20001ZM6.87499 7.20001H8.125V8.39999H6.87499V7.20001ZM3.12498 7.20001H1.87497V8.39999H3.12498V7.20001ZM4.37499 9.60001H5.62498V10.8H4.37499V9.60001ZM8.125 9.60001H6.87499V10.8H8.125V9.60001ZM1.87497 9.60001H3.12498V10.8H1.87497V9.60001ZM8.125 4.79999H6.87499V6H8.125V4.79999Z" fill="#2D6281"/>
</svg>
