<svg width="30" height="30" viewBox="0 0 30 30" fill="none" xmlns="http://www.w3.org/2000/svg">
<path d="M17.3775 2.17782V4.56375C20.565 4.58157 24.0525 4.53094 27.2409 4.58157C27.3534 4.56201 27.4689 4.56895 27.5782 4.60184C27.6875 4.63472 27.7876 4.69265 27.8706 4.77101C27.9536 4.84937 28.0172 4.946 28.0563 5.05324C28.0954 5.16048 28.109 5.27536 28.0959 5.38875C28.1466 11.2631 28.0837 17.4731 28.1259 23.3484C28.1072 23.7234 28.1344 24.3966 28.0763 24.7706C28.0022 25.2478 27.7894 25.3397 27.3103 25.4044C27.0422 25.4409 26.5941 25.4363 26.3306 25.4484C23.7131 25.4353 21.0975 25.4381 18.48 25.4391H17.3784V27.8269L1.875 25.4372C1.875 18.4791 1.875 11.5228 1.875 4.56844L17.3775 2.17782Z" fill="#2D6281"/>
<path d="M17.3774 5.45813H27.2212V24.5438H17.3774V22.1578H25.1306V20.9653H17.3774V19.4747H25.1306V18.2813H17.3774V16.7906H25.1306V15.5972H17.3774V14.1066H25.1306V12.9131H17.3774V11.4225H25.1306V10.2291H17.3774V8.73844H25.1306V7.54501H17.3774V5.45813Z" fill="white"/>
<path d="M8.03719 10.7278C8.59969 10.695 9.17062 10.6716 9.73687 10.6416C10.1334 12.6544 10.5394 14.6644 10.9688 16.6687C11.3053 14.5987 11.6784 12.5353 12.0394 10.4691C12.6356 10.4484 13.2319 10.4156 13.8253 10.3753C13.1512 13.2647 12.5606 16.1784 11.8247 19.0509C11.3269 19.3106 10.5816 19.0387 9.99094 19.0809C9.59437 17.1066 9.13219 15.1434 8.77688 13.1616C8.42813 15.0937 7.97438 16.9997 7.575 18.9141C7.0025 18.8841 6.42781 18.8494 5.85094 18.81C5.35594 16.185 4.77469 13.5797 4.3125 10.9491C4.8225 10.9256 5.33531 10.9041 5.84531 10.8862C6.15281 12.7856 6.50156 14.6766 6.76969 16.5787C7.18969 14.6287 7.62 12.6778 8.03719 10.7278Z" fill="white"/>
</svg>
