<svg width="38" height="38" viewBox="0 0 38 38" fill="none" xmlns="http://www.w3.org/2000/svg">
<path d="M22.0115 2.75857V5.78076C26.049 5.80332 30.4665 5.7392 34.5052 5.80332C34.6476 5.77855 34.7939 5.78734 34.9324 5.829C35.0708 5.87065 35.1976 5.94402 35.3028 6.04328C35.4079 6.14254 35.4885 6.26494 35.538 6.40078C35.5875 6.53661 35.6047 6.68212 35.5882 6.82576C35.6523 14.2666 35.5728 22.1326 35.6262 29.5747C35.6024 30.0497 35.6369 30.9023 35.5633 31.3761C35.4694 31.9806 35.1999 32.0969 34.5931 32.1789C34.2534 32.2252 33.6858 32.2193 33.3521 32.2347C30.0366 32.2181 26.7235 32.2216 23.408 32.2228H22.0127V35.2474L2.375 32.2204C2.375 23.4068 2.375 14.5956 2.375 5.7867L22.0115 2.75857Z" fill="white"/>
<path d="M22.0117 6.91364H34.4805V31.0888H22.0117V28.0666H31.8323V26.5561H22.0117V24.6679H31.8323V23.1563H22.0117V21.2681H31.8323V19.7564H22.0117V17.8683H31.8323V16.3566H22.0117V14.4685H31.8323V12.9568H22.0117V11.0687H31.8323V9.55701H22.0117V6.91364Z" fill="#2D6281"/>
<path d="M10.1803 13.5886C10.8928 13.547 11.616 13.5173 12.3333 13.4793C12.8356 16.0289 13.3498 18.5749 13.8937 21.1138C14.32 18.4918 14.7926 15.8781 15.2498 13.2608C16.005 13.2347 16.7603 13.1932 17.512 13.1421C16.6582 16.802 15.91 20.4927 14.9778 24.1312C14.3473 24.4602 13.4032 24.1158 12.6551 24.1692C12.1528 21.6683 11.5673 19.1817 11.1173 16.6713C10.6755 19.1188 10.1008 21.533 9.5949 23.9578C8.86974 23.9198 8.1418 23.8759 7.41109 23.826C6.78409 20.501 6.04784 17.201 5.4624 13.8688C6.1084 13.8392 6.75796 13.8118 7.40396 13.7893C7.79346 16.1952 8.23521 18.5903 8.57484 20.9998C9.10684 18.5298 9.6519 16.0586 10.1803 13.5886Z" fill="#2D6281"/>
</svg>
