<svg width="32" height="32" viewBox="0 0 32 32" fill="none" xmlns="http://www.w3.org/2000/svg">
<circle cx="16" cy="16" r="15.5" stroke="#E5E5E5" stroke-dasharray="2 2"/>
<path d="M20.7165 15.3333C20.5248 15.0833 20.2915 14.8667 20.0748 14.65C19.5165 14.15 18.8831 13.7917 18.3498 13.2667C17.1081 12.05 16.8331 10.0417 17.6248 8.5C16.8331 8.69167 16.1415 9.125 15.5498 9.6C13.3915 11.3333 12.5415 14.3917 13.5581 17.0167C13.5915 17.1 13.6248 17.1833 13.6248 17.2917C13.6248 17.475 13.4998 17.6417 13.3331 17.7083C13.1415 17.7917 12.9415 17.7417 12.7831 17.6083C12.7358 17.5687 12.6963 17.5207 12.6665 17.4667C11.7248 16.275 11.5748 14.5667 12.2081 13.2C10.8165 14.3333 10.0581 16.25 10.1665 18.0583C10.2165 18.475 10.2665 18.8917 10.4081 19.3083C10.5248 19.8083 10.7498 20.3083 10.9998 20.75C11.8998 22.1917 13.4581 23.225 15.1331 23.4333C16.9165 23.6583 18.8248 23.3333 20.1915 22.1C21.7165 20.7167 22.2498 18.5 21.4665 16.6L21.3581 16.3833C21.1831 16 20.7165 15.3333 20.7165 15.3333ZM18.0831 20.5833C17.8498 20.7833 17.4665 21 17.1665 21.0833C16.2331 21.4167 15.2998 20.95 14.7498 20.4C15.7415 20.1667 16.3331 19.4333 16.5081 18.6917C16.6498 18.025 16.3831 17.475 16.2748 16.8333C16.1748 16.2167 16.1915 15.6917 16.4165 15.1167C16.5748 15.4333 16.7415 15.75 16.9415 16C17.5831 16.8333 18.5915 17.2 18.8081 18.3333C18.8415 18.45 18.8581 18.5667 18.8581 18.6917C18.8831 19.375 18.5831 20.125 18.0831 20.5833Z" fill="url(#paint0_linear_2414_2)"/>
<defs>
<linearGradient id="paint0_linear_2414_2" x1="16.0197" y1="23.4996" x2="16.0197" y2="8.5" gradientUnits="userSpaceOnUse">
<stop stop-color="#F0572D"/>
<stop offset="1" stop-color="#CE441E"/>
</linearGradient>
</defs>
</svg>
