<svg width="14" height="14" viewBox="0 0 14 14" fill="none" xmlns="http://www.w3.org/2000/svg">
<mask id="mask0_10_3228" style="mask-type:luminance" maskUnits="userSpaceOnUse" x="1" y="0" width="12" height="14">
<path d="M7 12.8334C7 12.8334 11.375 9.33335 11.375 5.54169C11.375 3.12552 9.41617 1.16669 7 1.16669C4.58383 1.16669 2.625 3.12552 2.625 5.54169C2.625 9.33335 7 12.8334 7 12.8334Z" fill="white" stroke="white" stroke-width="2" stroke-linejoin="round"/>
<path d="M7 7.29169C7.22981 7.29169 7.45738 7.24642 7.6697 7.15848C7.88202 7.07053 8.07493 6.94163 8.23744 6.77912C8.39994 6.61662 8.52884 6.4237 8.61679 6.21138C8.70474 5.99906 8.75 5.7715 8.75 5.54169C8.75 5.31187 8.70474 5.08431 8.61679 4.87199C8.52884 4.65967 8.39994 4.46675 8.23744 4.30425C8.07493 4.14175 7.88202 4.01284 7.6697 3.9249C7.45738 3.83695 7.22981 3.79169 7 3.79169C6.53587 3.79169 6.09075 3.97606 5.76256 4.30425C5.43437 4.63244 5.25 5.07756 5.25 5.54169C5.25 6.00582 5.43437 6.45094 5.76256 6.77912C6.09075 7.10731 6.53587 7.29169 7 7.29169Z" fill="black" stroke="black" stroke-width="2" stroke-linejoin="round"/>
</mask>
<g mask="url(#mask0_10_3228)">
<path d="M0 0H14V14H0V0Z" fill="#2D6281"/>
</g>
</svg>
