<svg width="16" height="16" viewBox="0 0 16 16" fill="none" xmlns="http://www.w3.org/2000/svg">
<path d="M8 0.666672C9.5913 0.666672 11.1174 1.29881 12.2426 2.42403C13.3679 3.54925 14 5.07537 14 6.66667C14 9.15067 12.1067 11.7533 8.4 14.5333C8.2846 14.6199 8.14425 14.6667 8 14.6667C7.85575 14.6667 7.7154 14.6199 7.6 14.5333C3.89333 11.7533 2 9.15067 2 6.66667C2 5.07537 2.63214 3.54925 3.75736 2.42403C4.88258 1.29881 6.4087 0.666672 8 0.666672ZM8 4.66667C7.46957 4.66667 6.96086 4.87739 6.58579 5.25246C6.21071 5.62753 6 6.13624 6 6.66667C6 7.1971 6.21071 7.70581 6.58579 8.08089C6.96086 8.45596 7.46957 8.66667 8 8.66667C8.53043 8.66667 9.03914 8.45596 9.41421 8.08089C9.78929 7.70581 10 7.1971 10 6.66667C10 6.13624 9.78929 5.62753 9.41421 5.25246C9.03914 4.87739 8.53043 4.66667 8 4.66667Z" fill="#2D6281"/>
</svg>
