<svg width="16" height="16" viewBox="0 0 16 16" fill="none" xmlns="http://www.w3.org/2000/svg">
<g clip-path="url(#clip0_10_3240)">
<path d="M11.0688 7.9L9.41475 3.72667L8.02009 6.16667L6.62542 3.72667L4.97142 7.90133H4.49342V8.52867H6.98409V7.90133H6.61542L6.97409 6.86467L8.02009 8.578L9.06609 6.86467L9.42476 7.90133H9.05609V8.52867H11.5568V7.90133L11.0688 7.9ZM14.6254 6.62533C14.6259 5.75516 14.4548 4.89343 14.122 4.08941C13.7892 3.28539 13.3012 2.55485 12.6859 1.93954C12.0706 1.32423 11.34 0.836231 10.536 0.503432C9.73199 0.170633 8.87026 -0.000437293 8.00009 8.39454e-07C4.34409 8.39454e-07 1.37476 2.96867 1.37476 6.62533C1.37476 8.45867 2.12209 10.112 3.31742 11.3073C3.39227 11.3828 3.48789 11.4344 3.59212 11.4554C3.69634 11.4764 3.80446 11.466 3.90273 11.4254C4.001 11.3848 4.08498 11.3159 4.14398 11.2274C4.20299 11.139 4.23435 11.035 4.23409 10.9287C4.23431 10.7834 4.17703 10.6439 4.07476 10.5407C3.03928 9.50099 2.45898 8.0927 2.46142 6.62533C2.46142 3.56667 4.94142 1.076 8.00009 1.076C11.0588 1.076 13.5494 3.56667 13.5494 6.62533C13.5511 7.35441 13.4084 8.07659 13.1297 8.75029C12.851 9.42398 12.4417 10.0359 11.9254 10.5507L7.24276 15.2327L8.00009 16L12.6928 11.3073C13.3076 10.6928 13.7949 9.96283 14.1266 9.15931C14.4583 8.35579 14.6278 7.49462 14.6254 6.62533Z" fill="#2D6281"/>
</g>
<defs>
<clipPath id="clip0_10_3240">
<rect width="16" height="16" fill="white"/>
</clipPath>
</defs>
</svg>
