<svg width="52" height="52" viewBox="0 0 52 52" fill="none" xmlns="http://www.w3.org/2000/svg">
<circle cx="26" cy="26" r="26" fill="url(#paint0_linear_2594_10)"/>
<path d="M16.6667 16.6667V19.0001H35.3333V16.6667M16.6667 20.1667L15.5 26.0001V28.3334H16.6667V35.3334H27.1667C27.1083 34.9367 27.0733 34.5284 27.0733 34.1084C27.0733 32.6851 27.5167 31.2851 28.3333 30.1184V28.3334H30.13C31.2967 27.5517 32.6617 27.1201 34.0617 27.1201C34.89 27.1201 35.7183 27.2717 36.5 27.5634V26.0001L35.3333 20.1667M19 28.3334H26V33.0001H19M33 29.5001V33.0001H29.5V35.3334H33V38.8334H35.3333V35.3334H38.8333V33.0001H35.3333V29.5001" fill="white"/>
<defs>
<linearGradient id="paint0_linear_2594_10" x1="26.1294" y1="52" x2="26.1293" y2="3.31312e-07" gradientUnits="userSpaceOnUse">
<stop stop-color="#F0572D"/>
<stop offset="1" stop-color="#CE441E"/>
</linearGradient>
</defs>
</svg>
