<svg width="34" height="34" viewBox="0 0 34 34" fill="none" xmlns="http://www.w3.org/2000/svg">
<rect x="0.5" y="0.5" width="33" height="33" stroke="#2D6281"/>
<path d="M23.3655 20.855L20.3167 18.083C20.1727 17.9518 19.9833 17.8819 19.7886 17.8879C19.5938 17.8939 19.4091 17.9754 19.2735 18.1152L17.4787 19.961C17.0467 19.8785 16.1782 19.6077 15.2842 18.716C14.3902 17.8212 14.1195 16.9505 14.0392 16.5215L15.8835 14.726C16.0233 14.5903 16.1048 14.4056 16.1108 14.2109C16.1169 14.0162 16.0469 13.8268 15.9157 13.6827L13.1445 10.6347C13.0132 10.4903 12.8309 10.4026 12.6361 10.3904C12.4413 10.3783 12.2494 10.4425 12.1012 10.5695L10.4737 11.9652C10.344 12.0954 10.2667 12.2686 10.2562 12.452C10.245 12.6395 10.0305 17.081 13.4745 20.5265C16.479 23.5302 20.2425 23.75 21.279 23.75C21.4305 23.75 21.5235 23.7455 21.5482 23.744C21.7315 23.7332 21.9044 23.6555 22.0342 23.5257L23.4292 21.8975C23.5567 21.7498 23.6214 21.5581 23.6095 21.3633C23.5976 21.1685 23.51 20.9861 23.3655 20.855Z" fill="#2D6281"/>
</svg>
