<svg width="16" height="16" viewBox="0 0 16 16" fill="none" xmlns="http://www.w3.org/2000/svg">
<path d="M13.658 11.4267L10.948 8.96266C10.82 8.84608 10.6516 8.78387 10.4785 8.78922C10.3055 8.79457 10.1413 8.86706 10.0207 8.99133L8.42534 10.632C8.04134 10.5587 7.26934 10.318 6.47467 9.52533C5.68 8.73 5.43934 7.956 5.368 7.57466L7.00734 5.97866C7.13161 5.85808 7.2041 5.69388 7.20945 5.5208C7.2148 5.34773 7.15259 5.17936 7.036 5.05133L4.57267 2.342C4.45603 2.21357 4.29392 2.13567 4.12077 2.12484C3.94762 2.11401 3.77707 2.1711 3.64534 2.284L2.19867 3.52466C2.08341 3.64034 2.01462 3.7943 2.00534 3.95733C1.99534 4.124 1.80467 8.072 4.866 11.1347C7.53667 13.8047 10.882 14 11.8033 14C11.938 14 12.0207 13.996 12.0427 13.9947C12.2056 13.985 12.3593 13.916 12.4747 13.8007L13.7147 12.3533C13.828 12.222 13.8855 12.0516 13.8749 11.8785C13.8644 11.7053 13.7865 11.5432 13.658 11.4267Z" fill="#2D6281"/>
</svg>
