<svg width="52" height="52" viewBox="0 0 52 52" fill="none" xmlns="http://www.w3.org/2000/svg">
<circle cx="26" cy="26" r="26" fill="url(#paint0_linear_2594_7)"/>
<path d="M34.1654 14.3333H17.832V21.3333H34.1654V14.3333ZM31.832 18.9999H20.1654V16.6666H31.832V18.9999ZM37.6654 37.6666H14.332V34.1666H37.6654V37.6666ZM32.9987 22.4999H18.9987L14.332 32.9999H37.6654L32.9987 22.4999ZM23.6654 30.6666H21.332V29.4999H23.6654V30.6666ZM23.6654 28.3333H21.332V27.1666H23.6654V28.3333ZM23.6654 25.9999H21.332V24.8333H23.6654V25.9999ZM27.1654 30.6666H24.832V29.4999H27.1654V30.6666ZM27.1654 28.3333H24.832V27.1666H27.1654V28.3333ZM27.1654 25.9999H24.832V24.8333H27.1654V25.9999ZM30.6654 30.6666H28.332V29.4999H30.6654V30.6666ZM30.6654 28.3333H28.332V27.1666H30.6654V28.3333ZM30.6654 25.9999H28.332V24.8333H30.6654V25.9999Z" fill="white"/>
<defs>
<linearGradient id="paint0_linear_2594_7" x1="26.1294" y1="52" x2="26.1293" y2="3.31312e-07" gradientUnits="userSpaceOnUse">
<stop stop-color="#F0572D"/>
<stop offset="1" stop-color="#CE441E"/>
</linearGradient>
</defs>
</svg>
